<svg xmlns="http://www.w3.org/2000/svg" viewBox="0 0 32 32" fill="none">
  <defs>
    <linearGradient id="g" x1="0%" y1="0%" x2="100%" y2="100%">
      <stop offset="0%" style="stop-color:#828fff"/>
      <stop offset="100%" style="stop-color:#5e6ad2"/>
    </linearGradient>
  </defs>
  <rect width="32" height="32" rx="6" fill="#08090a"/>
  <!-- Anvil top -->
  <rect x="8" y="16.5" width="16" height="2" rx="0.5" fill="url(#g)"/>
  <!-- Horn left -->
  <path d="M8 16.5 L5.5 16.5 C4.8 16.5 4.4 16 4.6 15.4 L6.2 13.4 C6.4 13.1 6.8 13.1 7 13.4 L8 15 Z" fill="url(#g)" opacity="0.85"/>
  <!-- Heel right -->
  <path d="M24 16.5 L26.5 16.5 C27.2 16.5 27.6 16 27.4 15.4 L25.8 13.4 C25.6 13.1 25.2 13.1 25 13.4 L24 15 Z" fill="url(#g)" opacity="0.85"/>
  <!-- Waist -->
  <path d="M10.5 18.5 L13.5 22 L18.5 22 L21.5 18.5 Z" fill="url(#g)" opacity="0.8"/>
  <!-- Base -->
  <path d="M7 22 L25 22 L26.5 23 C27 23.3 27 23.7 26.5 24 L25 24.8 L7 24.8 L5.5 24 C5 23.7 5 23.3 5.5 23 Z" fill="url(#g)"/>
  <!-- Left bracket < -->
  <path d="M12 7 L9 11 L12 15" stroke="#fff" stroke-width="1.8" stroke-linecap="square" stroke-linejoin="miter" fill="none"/>
  <!-- Slash / -->
  <path d="M14.5 6.2 L17.5 15.8" stroke="#fff" stroke-width="1" stroke-linecap="square" fill="none" opacity="0.6"/>
  <!-- Right bracket > -->
  <path d="M20 7 L23 11 L20 15" stroke="#fff" stroke-width="1.8" stroke-linecap="square" stroke-linejoin="miter" fill="none"/>
  <!-- Sparks -->
  <circle cx="10.5" cy="14" r="1.2" fill="#a5b4fc"/>
  <circle cx="9" cy="12.5" r="0.7" fill="#828fff" opacity="0.6"/>
  <circle cx="21.5" cy="14" r="1.2" fill="#a5b4fc"/>
  <circle cx="23" cy="12.5" r="0.7" fill="#828fff" opacity="0.6"/>
</svg>
